<?xml version="1.0" encoding="UTF-8" standalone="no"?>
<!-- Created with Inkscape (http://www.inkscape.org/) -->

<svg
   xmlns:dc="http://purl.org/dc/elements/1.1/"
   xmlns:cc="http://creativecommons.org/ns#"
   xmlns:rdf="http://www.w3.org/1999/02/22-rdf-syntax-ns#"
   xmlns:svg="http://www.w3.org/2000/svg"
   xmlns="http://www.w3.org/2000/svg"
   xmlns:xlink="http://www.w3.org/1999/xlink"
   xmlns:sodipodi="http://sodipodi.sourceforge.net/DTD/sodipodi-0.dtd"
   xmlns:inkscape="http://www.inkscape.org/namespaces/inkscape"
   id="svg2"
   version="1.1"
   inkscape:version="0.47 r22583"
   width="958"
   height="199"
   sodipodi:docname="bannerGASPE2.png">
  <metadata
     id="metadata8">
    <rdf:RDF>
      <cc:Work
         rdf:about="">
        <dc:format>image/svg+xml</dc:format>
        <dc:type
           rdf:resource="http://purl.org/dc/dcmitype/StillImage" />
        <dc:title></dc:title>
      </cc:Work>
    </rdf:RDF>
  </metadata>
  <defs
     id="defs6">
    <inkscape:perspective
       sodipodi:type="inkscape:persp3d"
       inkscape:vp_x="0 : 0.5 : 1"
       inkscape:vp_y="0 : 1000 : 0"
       inkscape:vp_z="1 : 0.5 : 1"
       inkscape:persp3d-origin="0.5 : 0.33333333 : 1"
       id="perspective10" />
    <inkscape:perspective
       id="perspective3723"
       inkscape:persp3d-origin="0.5 : 0.33333333 : 1"
       inkscape:vp_z="1 : 0.5 : 1"
       inkscape:vp_y="0 : 1000 : 0"
       inkscape:vp_x="0 : 0.5 : 1"
       sodipodi:type="inkscape:persp3d" />
    <inkscape:perspective
       id="perspective3794"
       inkscape:persp3d-origin="0.5 : 0.33333333 : 1"
       inkscape:vp_z="1 : 0.5 : 1"
       inkscape:vp_y="0 : 1000 : 0"
       inkscape:vp_x="0 : 0.5 : 1"
       sodipodi:type="inkscape:persp3d" />
    <inkscape:perspective
       id="perspective3937"
       inkscape:persp3d-origin="0.5 : 0.33333333 : 1"
       inkscape:vp_z="1 : 0.5 : 1"
       inkscape:vp_y="0 : 1000 : 0"
       inkscape:vp_x="0 : 0.5 : 1"
       sodipodi:type="inkscape:persp3d" />
    <inkscape:perspective
       id="perspective4023"
       inkscape:persp3d-origin="0.5 : 0.33333333 : 1"
       inkscape:vp_z="1 : 0.5 : 1"
       inkscape:vp_y="0 : 1000 : 0"
       inkscape:vp_x="0 : 0.5 : 1"
       sodipodi:type="inkscape:persp3d" />
    <inkscape:perspective
       id="perspective4151"
       inkscape:persp3d-origin="0.5 : 0.33333333 : 1"
       inkscape:vp_z="1 : 0.5 : 1"
       inkscape:vp_y="0 : 1000 : 0"
       inkscape:vp_x="0 : 0.5 : 1"
       sodipodi:type="inkscape:persp3d" />
    <inkscape:perspective
       id="perspective4244"
       inkscape:persp3d-origin="0.5 : 0.33333333 : 1"
       inkscape:vp_z="1 : 0.5 : 1"
       inkscape:vp_y="0 : 1000 : 0"
       inkscape:vp_x="0 : 0.5 : 1"
       sodipodi:type="inkscape:persp3d" />
    <inkscape:perspective
       id="perspective4309"
       inkscape:persp3d-origin="0.5 : 0.33333333 : 1"
       inkscape:vp_z="1 : 0.5 : 1"
       inkscape:vp_y="0 : 1000 : 0"
       inkscape:vp_x="0 : 0.5 : 1"
       sodipodi:type="inkscape:persp3d" />
    <inkscape:perspective
       id="perspective4331"
       inkscape:persp3d-origin="0.5 : 0.33333333 : 1"
       inkscape:vp_z="1 : 0.5 : 1"
       inkscape:vp_y="0 : 1000 : 0"
       inkscape:vp_x="0 : 0.5 : 1"
       sodipodi:type="inkscape:persp3d" />
  </defs>
  <sodipodi:namedview
     pagecolor="#ffffff"
     bordercolor="#666666"
     borderopacity="1"
     objecttolerance="10"
     gridtolerance="10"
     guidetolerance="10"
     inkscape:pageopacity="0"
     inkscape:pageshadow="2"
     inkscape:window-width="1024"
     inkscape:window-height="576"
     id="namedview4"
     showgrid="false"
     inkscape:zoom="0.92275574"
     inkscape:cx="479"
     inkscape:cy="113.28426"
     inkscape:window-x="-1"
     inkscape:window-y="-3"
     inkscape:window-maximized="1"
     inkscape:current-layer="svg2" />
  <image
     xlink:href="file:///home/glaice/bannerGASPE.png"
     width="958"
     height="199"
     id="image12"
     x="0"
     y="0" />
  <g
     id="g3951"
     transform="matrix(0.88828026,-0.45930184,0.45930184,0.88828026,-735.36708,712.64124)"
     inkscape:transform-center-x="-19.506787"
     inkscape:transform-center-y="-17.339367">
    <rect
       y="-226.45143"
       x="957.59363"
       height="102.1041"
       width="135.64824"
       id="rect3867"
       style="fill:#ffffff;stroke:#ffffff;stroke-width:6;stroke-linejoin:bevel;stroke-miterlimit:4;stroke-opacity:1;stroke-dasharray:none" />
    <image
       xlink:href="file:///home/glaice/GASPE_PHP/images/dsc09878.jpg"
       width="130"
       height="96"
       id="image3939"
       x="960.53772"
       y="-222.99706" />
  </g>
  <path
     style="fill:#ffffff;stroke:none"
     id="path4299-6"
     d="m 623.66197,70.17669 c 0.004,2.11945 -0.66519,4.18846 -1.90946,6.16006 -1.55711,1.66329 -3.47565,3.31756 -6.24706,4.31432 -19.38217,6.97105 -13.2736,5.42115 -23.48361,7.82162 -14.37631,2.75083 -29.07052,4.79678 -43.85265,6.55053 -20.03745,2.26714 -40.40742,2.88073 -60.73537,3.20907 -19.60036,0.53415 -39.15369,-0.0999 -58.63204,-1.41035 -16.39932,-1.31644 -32.12109,-4.6243 -46.3414,-9.76762 -2.90259,-1.04984 -5.66808,-2.23403 -8.50213,-3.35105 C 357.33967,76.50732 342.86449,67.62073 328.70639,58.72948 316.61753,50.95917 307.32398,41.86538 298.79272,32.56932 289.67046,22.35616 279.78862,12.42758 269.50751,2.63528 c -10.5446,-10.12341 -22.64196,-19.57504 -35.2638,-28.75688 -7.85278,-5.49367 -15.49993,-11.10467 -24.30412,-16.05482 -5.10436,-2.86991 -7.09514,-3.77512 -12.41087,-6.40929 -9.53402,-4.50088 -19.87463,-8.39448 -31.00093,-11.25066 -5.48426,-1.48371 -11.29463,-2.25987 -17.24847,-2.53935 -4.23143,-0.28979 -8.37369,0.0642 -12.55416,0.39551 -3.35254,0.20233 -6.58155,0.76651 -9.70866,1.49474 -6.43007,1.35053 -18.33937,6.05372 14.72194,-5.29719 0.33558,-0.1152 -0.65965,0.24531 -0.95737,0.39412 -0.66063,0.3302 -1.33986,0.83152 -1.89656,1.21455 -2.02469,1.56776 -4.56839,2.8305 -6.86266,4.24249 -1.30281,0.79548 -0.66733,0.39693 -1.90754,1.19496 0,0 -19.41658,4.86842 -19.41658,4.86842 l 0,0 c 1.36462,-0.72888 0.7061,-0.32732 1.95963,-1.21427 2.38583,-1.30984 4.70331,-2.70226 6.92607,-4.10934 0.5155,-0.39102 1.91464,-1.71771 2.55615,-1.95374 9.34084,-3.43696 13.3815,-5.59787 21.4263,-7.19656 3.18512,-0.6405 6.52277,-0.98209 9.84923,-1.21539 4.23761,-0.32301 8.48338,-0.4441 12.73945,-0.12698 5.98821,0.42768 11.75146,1.46349 17.19837,3.05562 10.87202,3.20519 21.10375,7.20927 30.49965,11.82952 4.90608,2.52741 7.58611,3.84351 12.31859,6.5527 8.76463,5.01748 16.37917,10.68442 24.19085,16.23821 12.57492,9.26053 24.75585,18.73225 35.29707,28.90787 10.36767,9.78265 20.30339,19.72363 29.65929,29.87926 8.54822,9.17433 17.59732,18.21067 29.42407,25.99521 14.00102,8.86215 28.20596,17.79631 44.92394,24.78288 6.78142,2.59643 9.84742,3.93323 17.03151,6.04916 11.77966,3.46947 24.42705,5.58577 37.38526,6.61087 19.43568,1.22657 38.92197,1.82146 58.46566,1.29401 20.22487,-0.36238 40.50488,-0.96429 60.41969,-3.30711 15.25225,-1.92198 30.43109,-4.17862 45.08306,-7.43092 8.46755,-2.35979 4.44134,-1.31834 -11.78591,4.4707 -0.72388,0.25823 1.47248,-0.49374 2.16147,-0.78518 1.58921,-0.67218 1.95622,-0.97707 3.14254,-1.88842 0.40946,-0.31452 0.78923,-0.64295 1.18386,-0.96442 1.56349,-1.67928 2.2266,-3.67839 2.12421,-5.60525 0,0 18.78423,-5.82362 18.78423,-5.82362 z" />
  <g
     id="g4157"
     transform="matrix(0.89144039,-0.45313798,0.45313798,0.89144039,304.31869,157.45433)">
    <rect
       style="fill:#ffffff;stroke:#ffffff;stroke-width:6;stroke-linejoin:bevel;stroke-miterlimit:4;stroke-opacity:1;stroke-dasharray:none"
       id="rect3592"
       width="135.64824"
       height="102.1041"
       x="-76.208557"
       y="-187.47217" />
    <image
       xlink:href="file:///home/glaice/GASPE_PHP/images/fotos%20reivei%C3%A3o%20e%20gaspe%20038.jpg"
       width="130"
       height="96"
       id="image4153"
       x="-72.49276"
       y="-184.44269" />
  </g>
  <g
     id="g4250"
     transform="matrix(0.91113404,-0.41211014,0.41211014,0.91113404,-79.009803,468.97834)">
    <rect
       style="fill:#ffffff;stroke:#ffffff;stroke-width:6;stroke-linejoin:bevel;stroke-miterlimit:4;stroke-opacity:1;stroke-dasharray:none"
       id="rect3865"
       width="135.64824"
       height="102.1041"
       x="279.9465"
       y="-252.22763" />
    <image
       xlink:href="file:///home/glaice/GASPE_PHP/images/SNEF%20e%20despedida%20do%20Pe.%20082.jpg"
       width="130"
       height="96"
       id="image4246"
       x="283.39786"
       y="-251.16472" />
  </g>
  <g
     id="g4043"
     transform="matrix(0.91336273,-0.4071468,0.4071468,0.91336273,96.02874,281.76212)">
    <rect
       y="-122.7167"
       x="173.29045"
       height="102.1041"
       width="135.64824"
       id="rect3863"
       style="fill:#ffffff;stroke:#ffffff;stroke-width:6;stroke-linejoin:bevel;stroke-miterlimit:4;stroke-opacity:1;stroke-dasharray:none" />
    <image
       xlink:href="file:///home/glaice/GASPE_PHP/images/dsc09957.jpg"
       width="130"
       height="96"
       id="image4025"
       x="178.29837"
       y="-120.0927" />
  </g>
  <path
     style="fill:#ffffff;stroke:none"
     id="path4299"
     d="m 812.32868,162.36683 c 0.004,2.28323 -0.65817,4.51212 -1.88929,6.63607 -1.54067,1.79181 -3.43893,3.57391 -6.18107,4.6477 -19.17744,7.50973 -13.13339,5.84006 -23.23555,8.42602 -14.22445,2.9634 -28.76344,5.16745 -43.38943,7.05672 -19.82578,2.44233 -39.98058,3.10333 -60.0938,3.45704 -19.39332,0.57543 -38.74011,-0.10763 -58.0127,-1.51933 -16.22609,-1.41816 -31.78179,-4.98163 -45.85189,-10.5224 -2.87193,-1.13096 -5.60821,-2.40666 -8.41232,-3.61 -16.44303,-7.75201 -30.76531,-17.32529 -44.77385,-26.9036 -11.96117,-8.37075 -21.15655,-18.16726 -29.59769,-28.18166 -9.0259,-11.00237 -18.80335,-21.69817 -28.97586,-32.24716 -10.43322,-10.90568 -22.40279,-21.08767 -34.8913,-30.97903 -7.76983,-5.91818 -15.33621,-11.96277 -24.0474,-17.29543 -5.05043,-3.09169 -7.02018,-4.06684 -12.27977,-6.90457 -9.43331,-4.84868 -19.66468,-9.04315 -30.67345,-12.12003 -5.42634,-1.59837 -11.17533,-2.43451 -17.06627,-2.73558 -4.18674,-0.31218 -8.28524,0.0691 -12.42156,0.42607 -3.31712,0.21797 -6.51203,0.82575 -9.6061,1.61025 -6.36215,1.45489 -18.14565,6.52151 14.56643,-5.70652 0.33203,-0.12411 -0.65268,0.26425 -0.94726,0.42456 -0.65365,0.35572 -1.3257,0.89578 -1.87652,1.30842 -2.00331,1.68889 -4.52014,3.04922 -6.79017,4.57032 -1.28906,0.85694 -0.66028,0.4276 -1.88739,1.28729 0,0 -19.21148,5.24462 -19.21148,5.24462 l 0,0 c 1.35021,-0.7852 0.69864,-0.35261 1.93893,-1.3081 2.36063,-1.41106 4.65363,-2.91107 6.8529,-4.42689 0.51006,-0.42123 1.89442,-1.85043 2.52915,-2.10471 9.24218,-3.70254 13.24015,-6.03043 21.19998,-7.75266 3.15147,-0.68999 6.45387,-1.05798 9.74518,-1.30931 4.19286,-0.34797 8.39378,-0.47842 12.60489,-0.13679 5.92495,0.46073 11.62732,1.57658 17.0167,3.29174 10.75718,3.45286 20.88083,7.76636 30.17747,12.74364 4.85426,2.7227 7.50598,4.1405 12.18847,7.05904 8.67205,5.4052 16.20615,11.51004 23.93531,17.493 12.44209,9.97613 24.49435,20.17977 34.92422,31.14169 10.25816,10.5386 20.08893,21.24775 29.346,32.18815 8.45792,9.88326 17.41143,19.61787 29.11326,28.00395 13.85312,9.54697 27.90801,19.1715 44.44939,26.69795 6.70979,2.79706 9.7434,4.23716 16.8516,6.5166 11.65524,3.73757 24.16903,6.0174 36.99036,7.12172 19.23037,1.32135 38.51082,1.96221 57.84807,1.394 20.01123,-0.39038 40.07702,-1.03881 59.78146,-3.56266 15.09114,-2.0705 30.10964,-4.50152 44.60684,-8.00514 8.37811,-2.54214 4.39443,-1.42021 -11.66141,4.81617 -0.71624,0.27818 1.45692,-0.5319 2.13864,-0.84585 1.57242,-0.72413 1.93555,-1.05258 3.10934,-2.03435 0.40513,-0.33883 0.7809,-0.69263 1.17136,-1.03895 1.54697,-1.80904 2.20307,-3.96263 2.10177,-6.03838 0,0 18.58581,-6.27363 18.58581,-6.27363 z" />
</svg>
